# File created by Blade
# Date/Time:  Wed Jan 21 14:58:10 2015
# Frame Rate: 120.000 fps
#------------------------------------------------------
:FULLY-SPECIFIED
:DEGREES
519
root 16.953527 35.393478 -23.007582 -171.707159 18.771714 -177.609850
Spine -14.865313 4.191335 1.681018
Head 14.318327 -13.080601 3.432588
LeftShoulder -6.549457 -31.135955 19.033478
LeftArm 2.306824 5.715848 -8.200452
LeftForeArm 12.208630 0.000000 -3.402226
LeftHand -10.839512 0.000000 -3.040970
LeftHandThumb1 -26.253704 0.000000 33.147579
RightShoulder -8.907460 -3.621736 -10.540231
RightArm 16.288607 24.191704 11.765840
RightForeArm -35.280819 -0.000000 6.211560
RightHand -4.033200 0.000000 9.426293
RightHandThumb1 -24.326973 -0.000000 -32.862282
LeftUpLeg 3.805233 23.966011 2.370871
LeftLeg -6.399248 -0.000000 0.000000
LeftFoot -23.925175 32.722260 -17.013638
LeftToeBase 25.340952 -0.000000 -0.000000
RightUpLeg -5.062003 4.532549 -4.313737
RightLeg -2.445103 -0.000000 0.000000
RightFoot -15.982278 -15.018061 16.008023
RightToeBase 25.497867 -0.000000 -0.000000
520
root 16.984909 35.390260 -22.994798 -171.657415 19.626692 -177.449996
Spine -14.784278 3.538367 1.848852
Head 14.284587 -13.525332 3.484648
LeftShoulder -6.497104 -31.231352 19.003028
LeftArm 2.279115 5.822814 -8.224513
LeftForeArm 12.129666 0.000000 -3.370707
LeftHand -10.749131 -0.000000 -3.159049
LeftHandThumb1 -26.253704 0.000000 33.147579
RightShoulder -9.057801 -3.673137 -10.517202
RightArm 15.859845 24.298251 11.661215
RightForeArm -35.225098 -0.000000 6.123483
RightHand -3.725302 -0.000000 9.409494
RightHandThumb1 -24.326973 -0.000000 -32.862282
LeftUpLeg 3.970775 24.494488 2.509033
LeftLeg -6.412191 -0.000000 0.000000
LeftFoot -24.073946 32.920467 -17.176394
LeftToeBase 25.213306 -0.000000 -0.000000
RightUpLeg -5.283703 5.021720 -4.207948
RightLeg -2.332941 -0.000000 0.000000
RightFoot -15.822008 -14.709127 15.849130
RightToeBase 25.519594 -0.000000 -0.000000
521
root 17.013463 35.387462 -22.975569 -171.529524 20.465117 -177.285875
Spine -14.781929 2.880872 2.025764
Head 14.235794 -13.999233 3.482729
LeftShoulder -6.452040 -31.229483 18.940603
LeftArm 2.354778 5.883531 -8.261988
LeftForeArm 12.023310 -0.000000 -3.499446
LeftHand -10.624081 0.000000 -3.211217
LeftHandThumb1 -26.253704 0.000000 33.147579
RightShoulder -9.219006 -3.732535 -10.520262
RightArm 15.428110 24.344003 11.565158
RightForeArm -34.861272 -0.000000 6.083900
RightHand -4.002145 -0.000000 9.490334
RightHandThumb1 -24.326973 -0.000000 -32.862282
LeftUpLeg 4.039698 24.934943 2.610355
LeftLeg -6.418721 -0.000000 0.000000
LeftFoot -24.246288 33.241114 -17.306627
LeftToeBase 25.167348 -0.000000 -0.000000
RightUpLeg -5.616307 5.432416 -4.116986
RightLeg -2.163659 -0.000000 0.000000
RightFoot -15.646329 -14.142021 15.889060
RightToeBase 25.423151 -0.000000 -0.000000
522
root 17.041181 35.383647 -22.955559 -171.434212 21.355163 -177.137249
Spine -14.734006 2.251666 2.178127
Head 14.219009 -14.471688 3.490720
LeftShoulder -6.420968 -31.281087 18.898012
LeftArm 2.361112 5.813648 -8.292951
LeftForeArm 12.170744 -0.000000 -3.500346
LeftHand -10.377602 -0.000000 -3.302826
LeftHandThumb1 -26.253704 0.000000 33.147579
RightShoulder -9.402540 -3.852057 -10.484202
RightArm 15.099077 24.574470 11.519765
RightForeArm -34.971054 -0.000000 5.957382
RightHand -4.025396 -0.000000 9.354811
RightHandThumb1 -24.326973 -0.000000 -32.862282
LeftUpLeg 4.156392 25.454246 2.705784
LeftLeg -6.434040 -0.000000 0.000000
LeftFoot -24.392358 33.530486 -17.414296
LeftToeBase 25.107143 -0.000000 -0.000000
RightUpLeg -5.941699 5.844411 -4.029021
RightLeg -1.967102 -0.000000 0.000000
RightFoot -15.557908 -13.696003 15.761747
RightToeBase 25.691769 -0.000000 -0.000000
523
root 17.071895 35.381927 -22.935519 -171.265802 22.202877 -176.961776
Spine -14.789755 1.543416 2.372330
Head 14.243368 -14.928286 3.464366
LeftShoulder -6.394103 -31.397956 18.871457
LeftArm 2.337537 5.852747 -8.338974
LeftForeArm 12.239356 0.000000 -3.539905
LeftHand -10.475150 -0.000000 -3.151029
LeftHandThumb1 -26.253704 0.000000 33.147579
RightShoulder -9.572328 -3.951472 -10.461128
RightArm 14.813670 24.905671 11.532925
RightForeArm -35.294124 -0.000000 5.854486
RightHand -3.952750 -0.000000 9.334265
RightHandThumb1 -24.326973 -0.000000 -32.862282
LeftUpLeg 4.191034 25.919234 2.809525
LeftLeg -6.418309 -0.000000 0.000000
LeftFoot -24.555579 33.817802 -17.512368
LeftToeBase 25.169222 -0.000000 -0.000000
RightUpLeg -6.298814 6.298340 -3.914989
RightLeg -1.816165 -0.000000 0.000000
RightFoot -15.389737 -13.335141 15.799223
RightToeBase 25.603077 -0.000000 -0.000000
524
root 17.100695 35.378154 -22.914470 -171.115976 23.065085 -176.783712
Spine -14.798576 0.875193 2.574352
Head 14.218677 -15.311169 3.433572
LeftShoulder -6.326325 -31.542348 18.806692
LeftArm 2.277176 6.018501 -8.346027
LeftForeArm 12.172830 -0.000000 -3.515754
LeftHand -10.479391 0.000000 -3.201769
LeftHandThumb1 -26.253704 0.000000 33.147579
RightShoulder -9.790968 -4.118783 -10.415493
RightArm 14.539315 25.078585 11.453719
RightForeArm -35.186130 -0.000000 5.781366
RightHand -3.901949 -0.000000 9.610835
RightHandThumb1 -24.326973 -0.000000 -32.862282
LeftUpLeg 4.269798 26.365728 2.918854
LeftLeg -6.438430 -0.000000 0.000000
LeftFoot -24.717637 34.143436 -17.614365
LeftToeBase 25.205419 -0.000000 -0.000000
RightUpLeg -6.635490 6.883629 -3.837373
RightLeg -1.661049 -0.000000 0.000000
RightFoot -15.292616 -13.050913 15.699626
RightToeBase 25.781461 -0.000000 -0.000000
525
root 17.128953 35.373884 -22.898569 -171.037793 23.931162 -176.630406
Spine -14.756261 0.228484 2.732447
Head 14.292807 -15.818833 3.350139
LeftShoulder -6.207874 -31.367185 18.649979
LeftArm 2.336226 5.855384 -8.321067
LeftForeArm 12.018543 0.000000 -3.536854
LeftHand -10.597115 -0.000000 -3.226696
LeftHandThumb1 -26.253704 0.000000 33.147579
RightShoulder -10.000057 -4.074393 -10.398644
RightArm 14.175718 25.066087 11.379024
RightForeArm -35.251149 -0.000000 5.703575
RightHand -3.767600 -0.000000 9.568266
RightHandThumb1 -24.326973 -0.000000 -32.862282
LeftUpLeg 4.425114 26.822898 3.032197
LeftLeg -6.442615 -0.000000 0.000000
LeftFoot -24.895131 34.408262 -17.823815
LeftToeBase 25.066833 -0.000000 -0.000000
RightUpLeg -6.914778 7.331841 -3.751867
RightLeg -1.473612 -0.000000 0.000000
RightFoot -15.170472 -12.629523 15.559384
RightToeBase 25.851032 -0.000000 -0.000000
526
root 17.158998 35.371238 -22.882394 -170.940372 24.776662 -176.454047
Spine -14.744804 -0.498891 2.938027
Head 14.403381 -16.187777 3.267118
LeftShoulder -6.181139 -31.490341 18.617707
LeftArm 2.307591 5.914552 -8.397797
LeftForeArm 11.994680 -0.000000 -3.500887
LeftHand -10.663778 -0.000000 -3.296210
LeftHandThumb1 -26.253704 0.000000 33.147579
RightShoulder -10.107223 -4.219394 -10.397729
RightArm 13.909345 25.688786 11.489029
RightForeArm -35.861127 -0.000000 5.500729
RightHand -3.625554 -0.000000 9.727520
RightHandThumb1 -24.326973 -0.000000 -32.862282
LeftUpLeg 4.573316 27.254653 3.166924
LeftLeg -6.450207 -0.000000 0.000000
LeftFoot -25.065747 34.692162 -18.000754
LeftToeBase 25.019014 -0.000000 -0.000000
RightUpLeg -7.166988 7.792615 -3.644459
RightLeg -1.343109 -0.000000 0.000000
RightFoot -15.019316 -12.290744 15.532054
RightToeBase 26.091917 -0.000000 -0.000000
527
root 17.188058 35.367638 -22.868200 -170.836667 25.605196 -176.265485
Spine -14.720169 -1.226762 3.154099
Head 14.456689 -16.596564 3.208265
LeftShoulder -6.171770 -31.617234 18.622827
LeftArm 2.263250 5.852876 -8.496261
LeftForeArm 12.264357 -0.000000 -3.493017
LeftHand -10.634665 0.000000 -3.418192
LeftHandThumb1 -26.253704 0.000000 33.147579
RightShoulder -10.243851 -4.459399 -10.293838
RightArm 13.474345 25.515269 11.198580
RightForeArm -35.354720 -0.000000 5.491747
RightHand -3.560379 -0.000000 9.555397
RightHandThumb1 -24.326973 -0.000000 -32.862282
LeftUpLeg 4.741908 27.665511 3.314273
LeftLeg -6.487173 -0.000000 0.000000
LeftFoot -25.223799 34.992843 -18.132919
LeftToeBase 24.984855 -0.000000 -0.000000
RightUpLeg -7.397893 8.235053 -3.526501
RightLeg -1.225109 -0.000000 0.000000
RightFoot -14.901238 -11.953316 15.375825
RightToeBase 26.262944 -0.000000 -0.000000
528
root 17.214750 35.362613 -22.858139 -170.732013 26.426986 -176.110152
Spine -14.704026 -1.953069 3.359724
Head 14.482616 -17.006957 3.079670
LeftShoulder -6.232798 -31.627841 18.583502
LeftArm 2.380668 5.798864 -8.600930
LeftForeArm 12.284429 -0.000000 -3.477699
LeftHand -10.779306 -0.000000 -3.148341
LeftHandThumb1 -26.253704 0.000000 33.147579
RightShoulder -10.403894 -4.380728 -10.318156
RightArm 13.070060 25.579636 11.126098
RightForeArm -35.571595 -0.000000 5.488774
RightHand -3.440357 0.000000 9.545791
RightHandThumb1 -24.326973 -0.000000 -32.862282
LeftUpLeg 4.898038 28.026817 3.419093
LeftLeg -6.514293 -0.000000 0.000000
LeftFoot -25.396173 35.305303 -18.302722
LeftToeBase 24.921196 -0.000000 -0.000000
RightUpLeg -7.617740 8.675248 -3.448394
RightLeg -1.143954 -0.000000 0.000000
RightFoot -14.756275 -11.575764 15.289263
RightToeBase 26.228981 -0.000000 -0.000000
529
root 17.244250 35.357868 -22.841095 -170.595982 27.271172 -175.942701
Spine -14.711339 -2.629496 3.531120
Head 14.497152 -17.386177 3.027039
LeftShoulder -6.187006 -31.652733 18.515557
LeftArm 2.390268 5.650475 -8.666905
LeftForeArm 12.351589 -0.000000 -3.385187
LeftHand -10.768473 -0.000000 -3.237494
LeftHandThumb1 -26.253704 0.000000 33.147579
RightShoulder -10.561019 -4.388445 -10.290092
RightArm 12.622164 25.682053 11.005399
RightForeArm -35.537909 0.000000 5.440446
RightHand -3.333671 -0.000000 9.542841
RightHandThumb1 -24.326973 -0.000000 -32.862282
LeftUpLeg 5.022850 28.357430 3.531876
LeftLeg -6.508122 -0.000000 0.000000
LeftFoot -25.595216 35.581280 -18.497953
LeftToeBase 24.836427 -0.000000 -0.000000
RightUpLeg -7.871774 9.135495 -3.364473
RightLeg -1.073251 -0.000000 0.000000
RightFoot -14.609811 -11.243524 15.158886
RightToeBase 26.523896 -0.000000 -0.000000
